<svg width="156" height="47" viewBox="0 0 156 47" fill="none" xmlns="http://www.w3.org/2000/svg">
<path d="M32.499 33.4628C31.5873 33.9424 30.809 33.9909 30.4731 33.5167C30.4198 33.4358 30.3825 33.3496 30.3665 33.258C30.3665 33.2526 30.3665 33.2526 30.3612 33.2472C30.3612 33.2311 30.3558 33.2095 30.3505 33.1934C30.3452 33.1664 30.3452 33.1395 30.3452 33.1071C30.3452 33.1018 30.3452 33.0964 30.3452 33.0856C30.3398 32.8377 30.4358 32.5521 30.5851 32.2719C31.8752 29.8955 35.8416 25.1373 35.8416 20.8695C35.8416 16.8873 34.786 14.4894 33.8904 12.9482C33.7091 12.6411 33.4586 12.2531 33.304 11.8759C33.304 11.8705 33.2986 11.8651 33.2986 11.8597C33.256 11.752 33.2293 11.6334 33.2293 11.5041C33.2293 10.9868 33.6452 10.5665 34.1516 10.5665C34.2476 10.5665 34.3329 10.5826 34.4182 10.6096C34.4288 10.6096 34.4342 10.6149 34.4448 10.6149C34.9033 10.7658 35.4471 11.0784 35.9962 11.4987C38.4539 13.3632 41.5299 17.5501 41.5299 20.8642C41.5353 26.5815 35.1166 32.2503 32.499 33.4628ZM22.5723 34.5028C22.583 34.6752 22.5084 34.8315 22.3804 34.9285C22.3484 34.9501 21.8953 35.2788 21.1702 35.5159C20.5518 35.7206 19.7415 35.9039 18.6006 35.9847C14.2077 36.3026 11.1743 32.606 10.9984 30.1272C10.9984 30.1003 10.993 30.0141 10.9877 29.9979C10.9771 29.8524 10.9877 29.7123 11.009 29.5722C11.1423 28.7046 11.846 28.0149 12.747 27.9502C13.4774 27.8963 14.1438 28.2735 14.501 28.8663L14.5063 28.8717C14.5383 28.9256 14.5649 28.9741 14.5969 29.0279C14.6876 29.1896 14.7728 29.3566 14.8581 29.5291C15.098 30.0141 15.3326 30.5314 15.6472 31.011C17.2092 33.4089 19.299 33.9747 21.1702 34.0771C21.4954 34.0933 21.7247 34.0663 21.9593 34.0448C21.9912 34.0448 22.0819 34.0394 22.0925 34.0394C22.3431 34.0448 22.5563 34.2388 22.5723 34.5028ZM28.234 23.5962C26.6293 26.7378 23.3187 28.1819 21.7567 26.9856C20.2426 25.8271 19.1497 23.0681 20.152 21.0797C21.4315 18.5363 25.0567 17.8303 27.1198 18.838C28.8045 19.6625 29.2576 21.597 28.234 23.5962ZM29.9667 14.7804C25.8457 12.7596 18.59 14.1769 16.0363 19.2637C14.0371 23.2405 16.2176 28.7531 19.2457 31.0756C22.3698 33.4682 28.9911 30.5745 32.2004 24.2967C34.2476 20.2983 33.3413 16.4239 29.9667 14.7804Z" fill="#E9004B"/>
<path d="M134.012 29.459C134.012 29.4752 134.006 29.486 134.006 29.486C134.006 29.486 133.974 29.4698 134.012 29.459ZM134.028 29.2058H124.144C124.144 29.2058 122.774 29.292 123.44 27.9718L128.489 19.2853H126.031C123.445 19.2799 123.728 16.6395 123.728 16.6395H132.364C132.364 16.6395 132.402 16.6341 132.466 16.6395C132.77 16.6449 133.649 16.7742 133.047 17.9166L133.057 17.9112L127.939 26.5546H132.124C133.958 26.5546 134.054 28.4891 134.028 29.2058ZM66.5352 17.6525C67.1963 18.4393 67.5375 19.6679 67.5375 21.3384V27.7778C67.5375 28.7154 66.7858 29.4806 65.8581 29.486H65.8315C65.2717 29.486 64.7066 29.4321 64.1255 29.3405V22.2383C64.1255 21.3653 64.0189 20.6863 63.8003 20.2229C63.5817 19.7487 63.1499 19.5224 62.4888 19.5224C62.2169 19.5224 61.9504 19.5601 61.6838 19.6409C61.4226 19.7272 61.1827 19.8673 60.9641 20.0882C60.7456 20.3145 60.5696 20.6163 60.431 21.0204C60.2977 21.4138 60.2231 21.9311 60.2231 22.567V27.767C60.2231 28.7154 59.4661 29.486 58.5278 29.4968H58.5011C57.9467 29.4968 57.3816 29.4429 56.8058 29.3513V27.8586C56.8005 27.8263 56.8005 27.7993 56.8005 27.7724C56.8005 27.7455 56.8058 27.7131 56.8058 27.6808V22.2437C56.8058 21.3707 56.6992 20.6917 56.4806 20.2283C56.2674 19.7541 55.8302 19.5278 55.1692 19.5278C54.8973 19.5278 54.6254 19.5655 54.3535 19.6463C54.0816 19.7326 53.8364 19.8834 53.6178 20.1205C53.4045 20.3522 53.2286 20.6863 53.1007 21.1067C52.9727 21.527 52.9087 22.0766 52.9087 22.7556V27.7724C52.9087 27.7724 52.9034 27.7724 52.9034 27.7778H52.9087C52.9087 27.8101 52.9034 27.8371 52.9034 27.8694C52.8981 27.8963 52.8981 27.9233 52.8981 27.9502C52.8981 27.9826 52.8874 28.0149 52.8821 28.0472C52.8768 28.0688 52.8768 28.1011 52.8714 28.1227C52.8608 28.155 52.8554 28.1819 52.8448 28.2035C52.8394 28.2304 52.8341 28.2574 52.8234 28.2897C52.8181 28.3113 52.8075 28.3328 52.8021 28.3544C52.7915 28.3813 52.7808 28.4137 52.7648 28.4406C52.7541 28.4568 52.7488 28.4729 52.7435 28.4891C52.7221 28.5214 52.7115 28.5591 52.6955 28.5969C52.6902 28.5969 52.6902 28.6023 52.6848 28.6076C52.3916 29.1411 51.8372 29.4968 51.1974 29.4968C50.6377 29.4968 50.0672 29.4429 49.4915 29.3513V16.7742C49.7154 16.7257 49.9393 16.688 50.1685 16.661C50.3924 16.6341 50.6377 16.6287 50.9149 16.6287C51.1868 16.6287 51.4267 16.6395 51.6399 16.661C51.8425 16.6826 52.0611 16.7203 52.285 16.7742C52.333 16.855 52.3756 16.9736 52.4129 17.1245C52.4556 17.2807 52.4876 17.437 52.5249 17.6094C52.5569 17.7765 52.5835 17.9489 52.6102 18.1052C52.6369 18.2668 52.6529 18.4069 52.6688 18.5201C52.8021 18.2776 52.9674 18.0351 53.1753 17.7926C53.3832 17.5501 53.6284 17.3292 53.9217 17.1352C54.2095 16.9466 54.5348 16.785 54.8973 16.661C55.2598 16.5371 55.665 16.4832 56.1128 16.4832C58.0586 16.4832 59.2955 17.2268 59.8392 18.7195C60.1591 18.1213 60.6123 17.5986 61.204 17.1514C61.7851 16.7041 62.5262 16.4832 63.4271 16.4832C64.8346 16.4724 65.8741 16.8604 66.5352 17.6525ZM75.7261 26.7486C75.5502 26.7809 75.3423 26.8132 75.097 26.8617C74.8571 26.8994 74.6172 26.921 74.3773 26.921C74.1694 26.921 73.9242 26.9102 73.6416 26.8833C73.3591 26.8617 73.0925 26.7971 72.8473 26.6947C72.5967 26.5869 72.3835 26.4198 72.2076 26.1935C72.0316 25.9672 71.9463 25.6439 71.9463 25.2236C71.9463 24.5931 72.1702 24.1351 72.634 23.8495C73.0872 23.5639 73.7109 23.4238 74.4946 23.4238C74.6706 23.4238 74.8731 23.4399 75.0917 23.4615C75.321 23.483 75.5289 23.5154 75.7208 23.5423V26.7486H75.7261ZM77.6347 17.6525C76.7017 16.8388 75.3956 16.4347 73.7269 16.4347C73.1192 16.4347 72.4581 16.494 71.7491 16.6018C71.4505 16.6556 71.1467 16.7149 70.8428 16.7904C70.7681 16.8119 70.6935 16.8227 70.6242 16.8496C70.2937 16.9358 69.9631 17.0328 69.6326 17.146C69.6326 17.5717 69.6699 17.9543 69.7499 18.283C69.7659 18.3477 69.7872 18.4177 69.8032 18.4824C69.8192 18.5363 69.8352 18.5902 69.8565 18.6387C70.0644 19.0913 70.5176 19.4146 71.0454 19.4146H71.056C71.12 19.4146 71.184 19.4092 71.2479 19.3985C71.3172 19.3769 71.3812 19.3661 71.4505 19.35C72.0156 19.226 72.5541 19.1614 73.0765 19.1614C73.4764 19.1614 73.8442 19.1829 74.1694 19.2368C74.5 19.2853 74.7772 19.3769 75.0011 19.517C75.225 19.6517 75.4062 19.8403 75.5289 20.0882C75.6568 20.3307 75.7208 20.6432 75.7208 21.0312V21.3276C75.1557 21.2791 74.6492 21.2575 74.1854 21.2575C73.5403 21.2575 72.9006 21.3222 72.2609 21.4677C71.6158 21.6078 71.0347 21.8287 70.5176 22.1467C69.9951 22.4646 69.5686 22.8849 69.2434 23.413C68.9129 23.9411 68.7476 24.5931 68.7476 25.3691C68.7476 26.145 68.8756 26.8078 69.1421 27.3359C69.4087 27.8748 69.7819 28.3113 70.2723 28.6507C70.7628 28.9956 71.3492 29.2381 72.0263 29.3836C72.7087 29.5291 73.4604 29.5992 74.2814 29.5992C75.2889 29.5992 76.819 29.3836 77.7093 29.195C78.5356 29.0118 79.0421 28.3436 79.0421 27.5245V21.5431C79.0474 19.7595 78.573 18.4608 77.6347 17.6525ZM140.98 26.657C140.804 26.6893 140.596 26.7216 140.361 26.7647C140.116 26.8078 139.876 26.824 139.636 26.824C139.433 26.824 139.183 26.8132 138.9 26.7863C138.623 26.7647 138.357 26.7055 138.111 26.5977C137.861 26.4899 137.648 26.3229 137.472 26.0965C137.301 25.8702 137.21 25.5469 137.21 25.1212C137.21 24.4907 137.44 24.0327 137.898 23.7471C138.351 23.4615 138.975 23.3214 139.759 23.3214C139.935 23.3214 140.137 23.3375 140.361 23.3591C140.585 23.386 140.793 23.413 140.98 23.4453V26.657ZM142.893 17.5609C141.96 16.7472 140.649 16.3431 138.986 16.3431C138.378 16.3431 137.722 16.4024 137.018 16.5155C136.715 16.564 136.411 16.6233 136.112 16.6987C136.038 16.7203 135.963 16.7365 135.894 16.7526C135.568 16.8335 135.238 16.9358 134.907 17.049C134.907 17.4801 134.945 17.8573 135.025 18.186C135.041 18.2507 135.057 18.3207 135.078 18.3854C135.094 18.4393 135.115 18.4932 135.131 18.547C135.334 18.9997 135.787 19.323 136.315 19.323H136.331C136.395 19.323 136.459 19.3176 136.517 19.3015C136.587 19.2853 136.656 19.2691 136.72 19.253C137.28 19.129 137.824 19.0644 138.351 19.0644C138.751 19.0644 139.119 19.0859 139.444 19.1398C139.769 19.1883 140.047 19.2799 140.276 19.42C140.5 19.5547 140.676 19.7433 140.804 19.9912C140.932 20.2337 140.996 20.5462 140.996 20.9396V21.236C140.436 21.1821 139.924 21.1605 139.46 21.1605C138.815 21.1605 138.175 21.2306 137.536 21.3653C136.891 21.5054 136.315 21.7264 135.792 22.0443C135.275 22.3622 134.849 22.7825 134.518 23.3052C134.193 23.8387 134.022 24.4907 134.022 25.2667C134.022 26.048 134.156 26.7001 134.422 27.2335C134.689 27.7724 135.062 28.2035 135.558 28.543C136.043 28.8879 136.629 29.1303 137.312 29.2758C137.994 29.4267 138.746 29.4968 139.556 29.4968C140.569 29.4968 142.099 29.2812 142.989 29.0926C143.816 28.9094 144.322 28.2358 144.322 27.4221V21.4407C144.301 19.6679 143.837 18.3692 142.893 17.5609ZM119.122 26.657C118.946 26.6893 118.743 26.7216 118.503 26.7647C118.263 26.8078 118.018 26.824 117.778 26.824C117.57 26.824 117.325 26.8132 117.048 26.7863C116.765 26.7647 116.499 26.7055 116.254 26.5977C116.003 26.4899 115.79 26.3229 115.614 26.0965C115.438 25.8702 115.353 25.5469 115.353 25.1212C115.353 24.4907 115.577 24.0327 116.035 23.7471C116.494 23.4615 117.117 23.3214 117.901 23.3214C118.077 23.3214 118.279 23.3375 118.503 23.3591C118.722 23.386 118.935 23.413 119.122 23.4453V26.657ZM121.036 17.5609C120.097 16.7472 118.791 16.3431 117.128 16.3431C116.52 16.3431 115.859 16.4024 115.15 16.5155C114.852 16.564 114.553 16.6233 114.244 16.6987C114.169 16.7203 114.094 16.7365 114.025 16.7526C113.7 16.8335 113.364 16.9358 113.034 17.049C113.034 17.4801 113.071 17.8573 113.151 18.186C113.167 18.2507 113.178 18.3207 113.199 18.3854C113.215 18.4393 113.236 18.4932 113.252 18.547C113.46 18.9997 113.908 19.323 114.441 19.323H114.446C114.521 19.323 114.58 19.3176 114.649 19.3015C114.718 19.2853 114.782 19.2691 114.852 19.253C115.411 19.129 115.955 19.0644 116.478 19.0644C116.883 19.0644 117.245 19.0859 117.576 19.1398C117.901 19.1883 118.173 19.2799 118.402 19.42C118.631 19.5547 118.807 19.7433 118.935 19.9912C119.063 20.2337 119.122 20.5462 119.122 20.9396V21.236C118.562 21.1821 118.05 21.1605 117.586 21.1605C116.941 21.1605 116.296 21.2306 115.662 21.3653C115.017 21.5054 114.441 21.7264 113.913 22.0443C113.396 22.3622 112.97 22.7825 112.639 23.3052C112.314 23.8387 112.149 24.4907 112.149 25.2667C112.149 25.6654 112.186 26.0319 112.25 26.366V26.3606C112.106 26.3929 111.136 26.5438 110.986 26.5546C110.832 26.5707 110.688 26.5815 110.565 26.5815C110.277 26.5815 110.037 26.5492 109.846 26.4845C109.654 26.4199 109.499 26.3013 109.376 26.1343C109.254 25.9618 109.168 25.7247 109.11 25.4122C109.051 25.105 109.025 24.7009 109.025 24.1944V12.9321C108.998 12.016 108.252 11.2832 107.34 11.2832H107.329C106.775 11.2832 106.21 11.3317 105.634 11.4287V24.9541C105.634 26.5115 106.007 27.6323 106.753 28.3274C107.5 29.0172 108.486 29.3621 109.723 29.3621C110.027 29.3621 110.363 29.3459 110.72 29.3136C111.018 29.2866 113.076 28.9094 113.956 28.7316C114.382 28.9795 114.873 29.1681 115.427 29.2866C116.115 29.4375 116.856 29.5075 117.677 29.5075C118.685 29.5075 120.215 29.292 121.11 29.1034C121.931 28.9202 122.438 28.2466 122.438 27.4329V21.4515C122.448 19.6679 121.974 18.3692 121.036 17.5609ZM100.02 25.854C99.4924 26.5007 98.7301 26.824 97.7385 26.824C97.1787 26.824 96.6829 26.7593 96.2511 26.63V22.346C96.2511 21.9419 96.2884 21.5647 96.3684 21.2036C96.443 20.848 96.5763 20.5408 96.7522 20.266C96.9282 20.002 97.1574 19.7864 97.4399 19.6356C97.7225 19.4793 98.0584 19.4038 98.4635 19.4038C98.9007 19.4038 99.2579 19.4901 99.5564 19.6679C99.8549 19.8457 100.1 20.0882 100.292 20.3953C100.484 20.7025 100.617 21.0743 100.703 21.5C100.783 21.9365 100.825 22.3999 100.825 22.9011C100.815 24.2159 100.553 25.202 100.02 25.854ZM103.032 18.0028C102.585 17.4747 102.057 17.0813 101.454 16.8227C100.852 16.564 100.212 16.4347 99.5191 16.4347C99.0659 16.4347 98.6608 16.4994 98.2876 16.6179C97.9197 16.7365 97.5839 16.8981 97.2907 17.0921C96.9921 17.2861 96.7416 17.507 96.5336 17.7603C96.3204 18.0082 96.1498 18.2668 96.0059 18.5255C95.9899 18.4123 95.9686 18.2668 95.9472 18.0998C95.9366 18.0513 95.9312 18.0028 95.9206 17.9543C95.4194 16.4347 92.8285 17.2538 92.8285 17.2538V26.4791C92.6046 26.533 92.1035 26.6408 91.9702 26.6516C91.8209 26.6677 91.6769 26.6731 91.549 26.6731C91.2611 26.6731 91.0212 26.6408 90.8293 26.5761C90.6374 26.5115 90.4828 26.3983 90.3601 26.2259C90.2429 26.0534 90.1522 25.8163 90.0936 25.5038C90.035 25.1966 90.0083 24.7925 90.0083 24.2859V13.0183C89.9763 12.1022 89.2353 11.3694 88.329 11.3694H88.3236C87.7639 11.3694 87.1988 11.4125 86.623 11.5095V25.035C86.623 25.5631 86.671 26.0373 86.7616 26.4684C86.5217 26.5169 86.0579 26.6246 85.9353 26.6354C85.7807 26.6516 85.6421 26.657 85.5141 26.657C85.2209 26.657 84.981 26.6246 84.7891 26.56C84.5972 26.4953 84.4426 26.3821 84.3199 26.2097C84.1973 26.0373 84.112 25.8002 84.0534 25.4876C83.9947 25.1805 83.9681 24.7763 83.9681 24.2698V13.0021C83.9414 12.0861 83.1951 11.3532 82.2834 11.3532H82.2781C81.7183 11.3532 81.1532 11.3963 80.5828 11.4933V25.0188C80.5828 26.5707 80.956 27.697 81.7023 28.3921C82.4434 29.0819 83.435 29.4267 84.6718 29.4267C84.981 29.4267 85.3116 29.4105 85.6741 29.3728C86.0099 29.3405 87.9718 28.9956 88.4409 28.8878C89.0753 29.2435 89.8324 29.4267 90.7173 29.4267C91.0212 29.4267 91.3571 29.4105 91.7143 29.3728C91.8635 29.362 92.3273 29.2866 92.8391 29.195V35.0417C93.1483 35.0902 93.4362 35.1225 93.7134 35.1387C93.996 35.1548 94.2732 35.1602 94.5451 35.1602H94.5878C95.4514 35.1548 96.1605 34.4974 96.2564 33.6514V29.4483C96.4323 29.4806 96.6509 29.5129 96.9175 29.5345C97.184 29.5614 97.4506 29.5722 97.7225 29.5722C98.7781 29.5722 99.7217 29.4159 100.559 29.098C101.396 28.7855 102.094 28.3328 102.675 27.7455C103.246 27.1635 103.688 26.4522 103.992 25.6116C104.296 24.7763 104.45 23.8333 104.45 22.7825C104.45 21.694 104.328 20.7564 104.077 19.9589C103.821 19.1937 103.475 18.5309 103.032 18.0028Z" fill="#54565A"/>
</svg>
